<?xml version="1.0" encoding="utf-8"?>
<!-- Generator: Adobe Illustrator 16.0.3, SVG Export Plug-In . SVG Version: 6.00 Build 0)  -->
<!DOCTYPE svg PUBLIC "-//W3C//DTD SVG 1.1//EN" "http://www.w3.org/Graphics/SVG/1.1/DTD/svg11.dtd">
<svg version="1.1" id="Layer_1" xmlns="http://www.w3.org/2000/svg" xmlns:xlink="http://www.w3.org/1999/xlink" x="0px" y="0px"
	 width="42px" height="42px" viewBox="0 0 42 42" enable-background="new 0 0 42 42" xml:space="preserve">
<ellipse fill="#BFBFBF" cx="20.999" cy="21.051" rx="20.649" ry="20.68"/>
<g>
	<path fill="#2E5E86" stroke="#323232" stroke-width="0.1" stroke-miterlimit="10" d="M18.335,8.59c0,0.514-0.254,0.771-0.762,0.771
		H9.849c-1.875,0-2.813,0.375-2.813,1.123v5.889c0,0.885,1.039,1.328,3.115,1.328h7.373c0.527,0,0.791,0.296,0.791,0.889
		c0,0.599-0.264,0.898-0.791,0.898h-7.373c-0.996,0-1.712-0.039-2.148-0.117c-0.475-0.091-0.97-0.267-1.484-0.527
		c-0.586-0.306-0.996-0.625-1.23-0.957c-0.28-0.377-0.42-0.869-0.42-1.475v-5.918c0-0.749,0.342-1.387,1.025-1.914
		c0.573-0.436,1.27-0.729,2.09-0.879c0.208-0.033,0.462-0.059,0.762-0.078S9.399,7.594,9.81,7.594h7.764
		C18.081,7.594,18.335,7.926,18.335,8.59z"/>
	<path fill="#2E5E86" stroke="#323232" stroke-width="0.1" stroke-miterlimit="10" d="M34.868,18.717
		c0,0.514-0.257,0.771-0.771,0.771c-0.495,0-0.804-0.02-0.928-0.059c-0.3-0.084-0.449-0.322-0.449-0.713v-4.229H22.212v4.229
		c0,0.514-0.254,0.771-0.762,0.771c-0.222,0-0.41-0.005-0.566-0.015s-0.28-0.021-0.371-0.034c-0.313-0.098-0.469-0.338-0.469-0.723
		V8.356c0-0.384,0.153-0.622,0.459-0.713c0.071-0.013,0.186-0.024,0.342-0.034s0.358-0.015,0.605-0.015
		c0.508,0,0.762,0.254,0.762,0.762v4.346H32.72V8.356c0-0.371,0.153-0.605,0.459-0.703c0.124-0.039,0.43-0.059,0.918-0.059
		c0.515,0,0.771,0.254,0.771,0.762V18.717z"/>
</g>
<g>
	<path fill="#2E5E86" stroke="#323232" stroke-width="0.1" stroke-miterlimit="10" d="M21.177,33.717
		c0,0.527-0.329,0.791-0.986,0.791c-0.521,0-0.843-0.02-0.967-0.059c-0.326-0.098-0.488-0.342-0.488-0.732v-2.256H6.177
		c-0.729,0-1.094-0.413-1.094-1.24v-6.855c0-0.391,0.163-0.635,0.488-0.732c0.124-0.039,0.446-0.059,0.967-0.059
		c0.658,0,0.986,0.264,0.986,0.791v6.045h11.211v-6.045c0-0.391,0.163-0.635,0.488-0.732c0.124-0.039,0.446-0.059,0.967-0.059
		c0.657,0,0.986,0.264,0.986,0.791V33.717z"/>
	<path fill="#2E5E86" stroke="#323232" stroke-width="0.1" stroke-miterlimit="10" d="M35.776,33.717
		c0,0.515-0.254,0.771-0.762,0.771h-6.953c-1.589,0-2.829-0.143-3.721-0.43c-1.374-0.475-2.061-1.377-2.061-2.705v-7.998
		c0-0.508,0.254-0.762,0.762-0.762c0.488,0,0.801,0.02,0.938,0.059c0.313,0.092,0.469,0.326,0.469,0.703v7.998
		c0,0.619,0.501,1.025,1.504,1.221c0.319,0.085,1.062,0.127,2.227,0.127h6.836C35.522,32.701,35.776,33.04,35.776,33.717z"/>
</g>
<g>
</g>
<g>
</g>
<g>
</g>
<g>
</g>
<g>
</g>
<g>
</g>
<g>
</g>
<g>
</g>
<g>
</g>
<g>
</g>
<g>
</g>
<g>
</g>
<g>
</g>
<g>
</g>
<g>
</g>
</svg>
