<?xml version="1.0" encoding="utf-8"?>
<!-- Generator: Adobe Illustrator 16.0.3, SVG Export Plug-In . SVG Version: 6.00 Build 0)  -->
<!DOCTYPE svg PUBLIC "-//W3C//DTD SVG 1.1//EN" "http://www.w3.org/Graphics/SVG/1.1/DTD/svg11.dtd">
<svg version="1.1" id="Layer_1" xmlns="http://www.w3.org/2000/svg" xmlns:xlink="http://www.w3.org/1999/xlink" x="0px" y="0px"
	 width="299.48px" height="50px" viewBox="0 0 299.48 50" enable-background="new 0 0 299.48 50" xml:space="preserve">
<g>
	<path d="M5.243,25.768c0,1.2,0.215,2.324,0.645,3.374c0.43,1.05,1.028,1.961,1.794,2.732c0.767,0.773,1.668,1.385,2.706,1.834
		c1.038,0.45,2.173,0.675,3.407,0.675c0.859,0,1.617-0.063,2.271-0.19s1.224-0.283,1.71-0.469c0.486-0.185,0.902-0.398,1.248-0.641
		c0.346-0.243,0.64-0.503,0.883-0.78l-0.252-1.456l0.617-0.589l3.925,5.789l-0.588,0.658l-1.122-0.624
		c-0.729,0.463-1.416,0.879-2.061,1.248c-0.645,0.37-1.309,0.676-1.991,0.919c-0.683,0.242-1.402,0.421-2.159,0.537
		c-0.757,0.115-1.584,0.173-2.481,0.173c-1.794,0-3.473-0.312-5.033-0.936c-1.561-0.624-2.907-1.508-4.038-2.651
		c-1.131-1.145-2.028-2.525-2.692-4.143s-0.995-3.409-0.995-5.373c0-1.895,0.285-3.675,0.855-5.338
		c0.57-1.664,1.411-3.114,2.523-4.351c1.112-1.236,2.5-2.212,4.164-2.929c1.664-0.716,3.598-1.075,5.804-1.075
		c0.972,0,1.902,0.135,2.79,0.402c0.887,0.268,1.687,0.57,2.397,0.908s1.304,0.669,1.781,0.996c0.477,0.326,0.799,0.559,0.967,0.699
		l1.065-0.524l0.617,0.664l-3.953,5.799l-0.617-0.659l0.281-1.491c-0.468-0.438-0.926-0.803-1.374-1.092
		c-0.449-0.289-0.907-0.52-1.374-0.693c-0.467-0.173-0.963-0.3-1.486-0.381c-0.523-0.081-1.084-0.121-1.682-0.121
		c-1.271,0-2.425,0.236-3.463,0.709c-1.038,0.473-1.935,1.118-2.692,1.938c-0.757,0.819-1.346,1.781-1.767,2.888
		C5.454,23.312,5.243,24.5,5.243,25.768z"/>
	<path d="M35.75,18.818c1.364,0,2.626,0.272,3.786,0.814c1.159,0.543,2.154,1.271,2.986,2.184c0.832,0.913,1.486,1.993,1.963,3.241
		c0.477,1.249,0.715,2.565,0.715,3.952c0,1.479-0.238,2.819-0.715,4.021c-0.477,1.201-1.131,2.23-1.963,3.085
		c-0.832,0.854-1.827,1.52-2.986,1.993c-1.16,0.474-2.421,0.71-3.786,0.71c-1.327,0-2.57-0.23-3.729-0.692
		c-1.159-0.463-2.159-1.127-3-1.994c-0.841-0.866-1.505-1.9-1.991-3.102c-0.486-1.202-0.729-2.542-0.729-4.021
		c0-1.387,0.225-2.703,0.673-3.952c0.449-1.248,1.089-2.328,1.921-3.241c0.832-0.913,1.827-1.641,2.986-2.184
		C33.04,19.09,34.329,18.818,35.75,18.818z M35.75,22.77c-0.841,0-1.626,0.168-2.355,0.503s-1.351,0.786-1.865,1.352
		c-0.515,0.567-0.921,1.226-1.22,1.976c-0.299,0.751-0.449,1.555-0.449,2.409c0,0.855,0.149,1.635,0.449,2.34
		c0.299,0.705,0.705,1.323,1.22,1.854c0.514,0.532,1.136,0.948,1.865,1.248c0.729,0.301,1.514,0.45,2.355,0.45
		s1.617-0.139,2.327-0.416s1.327-0.676,1.851-1.195c0.523-0.521,0.939-1.138,1.248-1.854c0.309-0.716,0.462-1.525,0.462-2.427
		c0-0.854-0.149-1.658-0.448-2.409c-0.299-0.75-0.711-1.409-1.234-1.976c-0.523-0.566-1.146-1.017-1.865-1.352
		C37.372,22.938,36.591,22.77,35.75,22.77z"/>
	<path d="M47.723,38.369v-1.005l0.785-0.659V20.829l-0.785-0.659v-1.005h3.981l9.057,12.999v-11.3l-0.729-0.693v-1.005h4.851v1.005
		l-0.757,0.659v17.54h-3.673L51.844,25.89v10.815l0.757,0.659v1.005H47.723z"/>
	<path d="M71.64,38.369v-1.005l0.729-0.659V22.909h-4.178l-0.645,1.491h-0.841l0.252-5.234h14.188l0.281,5.234h-0.841l-0.673-1.491
		H75.79v13.796l0.757,0.659v1.005H71.64z"/>
	<path d="M83.36,19.165h9.449c1.832,0,3.248,0.555,4.248,1.664c1,1.109,1.5,2.646,1.5,4.61c0,1.294-0.271,2.392-0.813,3.293
		s-1.262,1.595-2.159,2.08l3.505,5.893l1.093,0.659v1.005H94.66v-1.005l0.393-0.659l-2.682-4.888h-4.833v4.888l0.813,0.659v1.005
		H83.36v-1.005l0.757-0.659V20.829L83.36,20.17V19.165z M87.538,22.909v5.166h4.749c0.838,0,1.537-0.216,2.096-0.646
		c0.559-0.43,0.838-1.087,0.838-1.971c0-0.837-0.279-1.472-0.838-1.902c-0.559-0.43-1.257-0.646-2.096-0.646H87.538z"/>
	<path d="M102.342,38.369v-1.005l0.785-0.659V20.829l-0.785-0.659v-1.005h4.963v1.005l-0.757,0.659v15.876l0.757,0.659v1.005
		H102.342z"/>
	<path d="M109.941,38.369v-1.005l0.757-0.659V20.829l-0.757-0.659v-1.005h8.328c1.832,0,3.276,0.462,4.332,1.387
		c1.056,0.924,1.584,2.218,1.584,3.882c0,0.693-0.117,1.34-0.35,1.941c-0.234,0.602-0.51,1.098-0.827,1.491
		c0.598,0.393,1.122,0.965,1.57,1.716c0.449,0.751,0.673,1.716,0.673,2.895c0,0.993-0.182,1.866-0.546,2.617
		c-0.365,0.751-0.837,1.363-1.416,1.837c-0.58,0.474-1.225,0.832-1.935,1.074c-0.71,0.243-1.402,0.364-2.075,0.364H109.941z
		 M118.325,26.688c0.859,0,1.5-0.208,1.92-0.624c0.421-0.416,0.631-0.855,0.631-1.317c0-0.462-0.21-0.884-0.631-1.265
		c-0.42-0.381-1.061-0.572-1.92-0.572h-4.206v3.779H118.325z M119.166,34.486c0.916,0,1.603-0.219,2.061-0.658
		c0.458-0.438,0.687-0.913,0.687-1.421c0-0.254-0.056-0.509-0.168-0.763c-0.112-0.254-0.285-0.497-0.519-0.729
		c-0.234-0.23-0.523-0.41-0.869-0.537c-0.346-0.127-0.743-0.19-1.192-0.19h-5.047v4.298H119.166z"/>
	<path d="M139.298,19.165h4.963v1.005l-0.785,0.659v9.602c0,1.572-0.248,2.895-0.743,3.97c-0.496,1.074-1.122,1.936-1.878,2.582
		c-0.757,0.647-1.594,1.109-2.51,1.387c-0.916,0.277-1.804,0.416-2.664,0.416c-0.879,0-1.776-0.139-2.692-0.416
		c-0.916-0.277-1.752-0.739-2.509-1.387c-0.757-0.646-1.384-1.508-1.879-2.582c-0.496-1.075-0.743-2.397-0.743-3.97v-9.602
		l-0.785-0.659v-1.005h4.991v1.005l-0.785,0.659v9.429c0,1.456,0.4,2.595,1.202,3.414c0.801,0.821,1.873,1.23,3.214,1.23
		c1.323,0,2.38-0.409,3.172-1.23c0.792-0.819,1.188-1.958,1.188-3.414v-9.429l-0.757-0.659V19.165z"/>
	<path d="M150.794,38.369v-1.005l0.729-0.659V22.909h-4.178l-0.645,1.491h-0.841l0.252-5.234h14.187l0.281,5.234h-0.842
		l-0.672-1.491h-4.123v13.796l0.757,0.659v1.005H150.794z"/>
	<path d="M162.233,38.369v-1.005l0.785-0.659V20.829l-0.785-0.659v-1.005h4.963v1.005l-0.757,0.659v15.876l0.757,0.659v1.005
		H162.233z"/>
	<path d="M178.917,18.818c1.364,0,2.626,0.272,3.785,0.814c1.159,0.543,2.154,1.271,2.986,2.184
		c0.832,0.913,1.486,1.993,1.963,3.241c0.477,1.249,0.715,2.565,0.715,3.952c0,1.479-0.238,2.819-0.715,4.021
		c-0.477,1.201-1.131,2.23-1.963,3.085s-1.827,1.52-2.986,1.993s-2.421,0.71-3.785,0.71c-1.327,0-2.57-0.23-3.729-0.692
		c-1.159-0.463-2.158-1.127-3-1.994c-0.841-0.866-1.505-1.9-1.99-3.102c-0.486-1.202-0.729-2.542-0.729-4.021
		c0-1.387,0.225-2.703,0.673-3.952c0.449-1.248,1.089-2.328,1.921-3.241c0.831-0.913,1.827-1.641,2.986-2.184
		C176.206,19.09,177.496,18.818,178.917,18.818z M178.917,22.77c-0.841,0-1.626,0.168-2.355,0.503
		c-0.729,0.335-1.351,0.786-1.864,1.352c-0.515,0.567-0.921,1.226-1.22,1.976c-0.299,0.751-0.448,1.555-0.448,2.409
		c0,0.855,0.149,1.635,0.448,2.34s0.705,1.323,1.22,1.854c0.514,0.532,1.136,0.948,1.864,1.248c0.729,0.301,1.515,0.45,2.355,0.45
		s1.617-0.139,2.327-0.416s1.327-0.676,1.851-1.195c0.523-0.521,0.939-1.138,1.248-1.854c0.309-0.716,0.463-1.525,0.463-2.427
		c0-0.854-0.15-1.658-0.449-2.409c-0.299-0.75-0.71-1.409-1.233-1.976c-0.523-0.566-1.146-1.017-1.864-1.352
		C180.538,22.938,179.758,22.77,178.917,22.77z"/>
	<path d="M190.89,38.369v-1.005l0.785-0.659V20.829l-0.785-0.659v-1.005h3.981l9.058,12.999v-11.3l-0.729-0.693v-1.005h4.851v1.005
		l-0.757,0.659v17.54h-3.673l-8.608-12.479v10.815l0.757,0.659v1.005H190.89z"/>
</g>
<g>
	<path fill="#327582" d="M227.212,33.873c0.309-0.611,0.729-1.336,1.26-2.177c0.976-1.512,1.649-2.268,2.02-2.268
		c0.284,0,0.427,0.191,0.427,0.573c0,0.229-0.136,0.526-0.408,0.893c-1.741,2.23-3.316,5.2-4.725,8.911
		c-0.147,0.412-0.358,0.618-0.63,0.618c-0.284,0-0.426-0.191-0.426-0.573c0-0.336,0.433-1.503,1.297-3.504
		c0.136-0.306,0.204-0.534,0.204-0.688c0-0.229-0.13-0.344-0.39-0.344c-1.68,0-3.829,0.237-6.447,0.71
		c-3.459,0.627-6.479,1.581-9.061,2.863c-0.234,0.122-0.438,0.184-0.611,0.184c-0.222,0-0.333-0.244-0.333-0.733
		c0-0.229,0.167-0.45,0.5-0.664c0.161-0.106,1.1-0.564,2.816-1.374l0.13-0.366c1.284-3.527,2.439-6.46,3.465-8.796
		c0.852-1.878,1.896-3.986,3.131-6.322c1.334-2.52,2.47-4.542,3.409-6.07c0.148-0.259,0.223-0.473,0.223-0.641
		c0-0.244-0.111-0.367-0.334-0.367s-0.661,0.183-1.315,0.55c-0.643,0.352-1.068,0.527-1.278,0.527c-0.272,0-0.401-0.152-0.39-0.458
		c0.013-0.382,0.167-0.672,0.464-0.871c1.223-0.855,2.847-1.634,4.873-2.336c2.21-0.779,3.946-1.168,5.206-1.168
		c0.519,0,0.778,0.214,0.778,0.641c0,0.321-0.137,0.527-0.408,0.619c-0.099,0.031-0.68,0.13-1.741,0.298
		c-0.531,0.091-1.1,0.229-1.705,0.412c-1.173,1.741-2.687,4.299-4.539,7.673c-2.161,3.985-3.959,7.689-5.392,11.109
		c-0.853,2.047-1.278,3.367-1.278,3.963c0,0.306,0.167,0.458,0.5,0.458c0.099,0,1.025-0.175,2.779-0.526
		C221.642,34.186,224.285,33.934,227.212,33.873z"/>
	<path fill="#327582" d="M231.529,35.567l0.147-0.343c1.618-3.757,3.262-7.192,4.929-10.308c0.21-0.381,0.315-0.641,0.315-0.779
		c0-0.244-0.105-0.366-0.315-0.366c-0.271,0-1.328,0.42-3.168,1.26c-0.223,0.107-0.383,0.16-0.481,0.16
		c-0.272,0-0.408-0.175-0.408-0.527c0-0.229,0.08-0.412,0.241-0.55c0.58-0.519,1.988-1.145,4.225-1.878
		c1.062-0.351,1.778-0.527,2.148-0.527c0.605,0,0.908,0.267,0.908,0.802c0,0.199-0.05,0.42-0.148,0.664
		c-0.136,0.321-0.636,1.275-1.501,2.863c-0.567,1.069-1.451,2.825-2.649,5.269c-0.716,1.481-1.074,2.428-1.074,2.84
		c0,0.397,0.229,0.596,0.686,0.596l2.427-0.046c0.52,0,0.778,0.214,0.778,0.642c0,0.458-0.277,0.687-0.834,0.687
		c-1.63,0.031-2.859,0.138-3.687,0.321c-0.902,0.198-1.791,0.474-2.668,0.824c-0.864,0.336-1.687,0.695-2.464,1.077
		c-0.21,0.091-0.377,0.137-0.501,0.137c-0.32,0-0.481-0.198-0.481-0.595c0-0.336,0.186-0.619,0.556-0.848
		C229.25,36.515,230.257,36.057,231.529,35.567z M241.867,14.128c0.396,0,0.717,0.153,0.964,0.458
		c0.234,0.29,0.352,0.68,0.352,1.168c0,0.581-0.173,1.046-0.519,1.397c-0.284,0.29-0.648,0.435-1.093,0.435
		c-0.457,0-0.804-0.175-1.038-0.527c-0.197-0.275-0.296-0.619-0.296-1.031c0-0.473,0.13-0.885,0.389-1.237
		C240.947,14.35,241.361,14.128,241.867,14.128z"/>
	<path fill="#327582" d="M247.259,25.672c2.161-2.275,4.058-3.413,5.688-3.413c0.778,0,1.383,0.275,1.815,0.824
		c0.396,0.504,0.593,1.107,0.593,1.81c0,0.535-0.111,1.184-0.333,1.947c0.617-0.84,1.247-1.527,1.89-2.062
		c1.223-1.008,2.415-1.512,3.576-1.512c0.654,0,1.253,0.221,1.797,0.664c0.63,0.535,0.945,1.497,0.945,2.886
		c0,0.52-0.118,1.107-0.353,1.765c-0.234,0.641-0.71,1.802-1.427,3.481c-0.333,0.81-0.5,1.366-0.5,1.672
		c0,0.504,0.247,0.756,0.741,0.756c0.062,0,0.154,0,0.277,0c0.692-0.03,1.242-0.046,1.649-0.046c0.58,0,0.945,0.038,1.093,0.114
		c0.21,0.123,0.315,0.321,0.315,0.596c0,0.412-0.254,0.627-0.76,0.642c-1.495,0.046-2.551,0.122-3.168,0.229
		c-1.594,0.337-3.435,1.031-5.521,2.085c-0.21,0.092-0.371,0.138-0.481,0.138c-0.347,0-0.52-0.184-0.52-0.55
		c0-0.336,0.198-0.626,0.593-0.871c0.544-0.305,1.198-0.633,1.965-0.984c0.357-0.168,0.586-0.282,0.686-0.344
		c0.395-0.778,0.969-2.054,1.723-3.825c0.556-1.298,0.908-2.138,1.056-2.52c0.358-0.946,0.538-1.726,0.538-2.337
		c0-1.16-0.525-1.74-1.575-1.74c-1.408,0-2.804,0.893-4.188,2.68c-0.79,0.993-1.563,2.375-2.315,4.146
		c-0.494,1.145-0.741,1.924-0.741,2.336c0,0.474,0.216,0.71,0.648,0.71c0.062,0,0.389-0.038,0.981-0.114
		c0.396-0.062,0.76-0.092,1.094-0.092c0.395,0,0.593,0.191,0.593,0.572c0,0.367-0.247,0.588-0.741,0.665
		c-2.903,0.274-5.571,1.168-8.004,2.68c-0.247,0.152-0.445,0.229-0.593,0.229c-0.321,0-0.482-0.198-0.482-0.595
		c0-0.321,0.18-0.596,0.538-0.825c0.53-0.336,1.358-0.771,2.482-1.306c0.284-0.458,0.89-1.68,1.815-3.665
		c0.457-0.977,1.038-2.306,1.742-3.985c0.333-0.809,0.537-1.352,0.611-1.626c0.099-0.382,0.147-0.794,0.147-1.237
		c0-0.396-0.092-0.725-0.277-0.985c-0.26-0.381-0.618-0.572-1.075-0.572c-1.074,0-2.285,0.649-3.631,1.947
		c-1.285,1.237-2.501,2.963-3.65,5.177c-0.753,1.436-1.13,2.466-1.13,3.092c0,0.367,0.117,0.573,0.352,0.619
		c0.173,0.046,0.686,0.03,1.538-0.046c0.42-0.046,0.803-0.069,1.148-0.069c0.445,0,0.667,0.206,0.667,0.619
		c0,0.26-0.11,0.45-0.333,0.572c-0.099,0.031-0.933,0.122-2.501,0.274c-0.951,0.062-2.144,0.329-3.576,0.802
		c-0.407,0.138-1.451,0.573-3.131,1.306c-0.198,0.077-0.371,0.115-0.52,0.115c-0.259,0-0.389-0.214-0.389-0.642
		c0-0.275,0.161-0.504,0.481-0.688c0.494-0.259,1.137-0.557,1.927-0.894c0.643-0.259,1.057-0.435,1.242-0.526l0.11-0.252
		c1.569-3.695,3.199-7.093,4.892-10.193c0.111-0.214,0.167-0.397,0.167-0.55c0-0.321-0.136-0.481-0.408-0.481
		c-0.185,0-1.08,0.329-2.687,0.985c-0.136,0.061-0.271,0.092-0.407,0.092c-0.284,0-0.426-0.184-0.426-0.55
		c0-0.305,0.16-0.542,0.481-0.71c0.729-0.397,2.105-0.932,4.132-1.604c0.803-0.275,1.334-0.413,1.594-0.413
		c0.469,0,0.703,0.283,0.703,0.848c0,0.26-0.21,0.794-0.63,1.604C247.679,24.802,247.493,25.184,247.259,25.672z"/>
	<path fill="#327582" d="M266.325,35.567l0.147-0.343c1.618-3.757,3.262-7.192,4.929-10.308c0.21-0.381,0.315-0.641,0.315-0.779
		c0-0.244-0.105-0.366-0.315-0.366c-0.271,0-1.328,0.42-3.168,1.26c-0.223,0.107-0.383,0.16-0.481,0.16
		c-0.272,0-0.408-0.175-0.408-0.527c0-0.229,0.08-0.412,0.241-0.55c0.58-0.519,1.988-1.145,4.225-1.878
		c1.062-0.351,1.778-0.527,2.148-0.527c0.605,0,0.908,0.267,0.908,0.802c0,0.199-0.05,0.42-0.148,0.664
		c-0.136,0.321-0.636,1.275-1.501,2.863c-0.567,1.069-1.451,2.825-2.649,5.269c-0.716,1.481-1.074,2.428-1.074,2.84
		c0,0.397,0.229,0.596,0.686,0.596l2.427-0.046c0.52,0,0.778,0.214,0.778,0.642c0,0.458-0.277,0.687-0.834,0.687
		c-1.63,0.031-2.859,0.138-3.687,0.321c-0.902,0.198-1.791,0.474-2.668,0.824c-0.864,0.336-1.687,0.695-2.464,1.077
		c-0.21,0.091-0.377,0.137-0.501,0.137c-0.32,0-0.481-0.198-0.481-0.595c0-0.336,0.186-0.619,0.556-0.848
		C264.046,36.515,265.053,36.057,266.325,35.567z M276.663,14.128c0.396,0,0.717,0.153,0.964,0.458
		c0.234,0.29,0.352,0.68,0.352,1.168c0,0.581-0.173,1.046-0.519,1.397c-0.284,0.29-0.648,0.435-1.093,0.435
		c-0.457,0-0.804-0.175-1.038-0.527c-0.197-0.275-0.296-0.619-0.296-1.031c0-0.473,0.13-0.885,0.389-1.237
		C275.743,14.35,276.157,14.128,276.663,14.128z"/>
	<path fill="#327582" d="M280.518,36.896c0.58-1.176,1.16-2.214,1.741-3.115c0.766-1.176,1.29-1.764,1.575-1.764
		c0.309,0,0.463,0.198,0.463,0.596c0,0.214-0.099,0.466-0.297,0.756c-0.914,1.282-1.68,2.512-2.297,3.688
		c-0.556,1.1-1.168,2.558-1.835,4.375c-0.185,0.519-0.413,0.778-0.686,0.778c-0.284,0-0.426-0.206-0.426-0.618
		c0-0.32,0.278-1.168,0.834-2.542c0.099-0.261,0.148-0.459,0.148-0.596c0-0.198-0.068-0.321-0.204-0.367
		c-0.062-0.03-0.438-0.076-1.13-0.137c-2.199-0.214-3.298-1.451-3.298-3.711c0-2.458,1.315-5.963,3.946-10.514
		c-0.47,0.061-1.205,0.199-2.205,0.412c-0.605,0.123-0.908-0.023-0.908-0.435c0-0.305,0.204-0.527,0.611-0.664
		c0.729-0.275,1.878-0.55,3.446-0.825c1.458-1.939,2.804-3.497,4.039-4.673c0.877-0.855,1.421-1.283,1.631-1.283
		c0.333,0,0.5,0.176,0.5,0.527c0,0.199-0.074,0.397-0.223,0.596c-0.024,0.031-0.333,0.382-0.926,1.054
		c-1.235,1.436-1.853,2.367-1.853,2.794c0,0.29,0.142,0.435,0.426,0.435c0.062,0,0.167-0.007,0.314-0.023
		c0.951-0.061,1.872-0.092,2.761-0.092c0.605,0,1.02,0.031,1.242,0.092c0.259,0.061,0.389,0.252,0.389,0.573
		c0,0.336-0.13,0.542-0.389,0.618c-0.087,0.016-0.612,0.023-1.575,0.023c-1.31,0.016-2.841,0.138-4.595,0.367
		c-0.791,1.237-1.563,2.672-2.316,4.307c-1.384,2.978-2.075,5.161-2.075,6.551c0,0.916,0.266,1.642,0.797,2.176
		c0.457,0.458,1.044,0.688,1.76,0.688C280.041,36.942,280.245,36.927,280.518,36.896z"/>
	<path fill="#327582" d="M296.283,23.955c1.038-1.71,1.754-2.565,2.149-2.565c0.297,0,0.445,0.176,0.445,0.527
		c0,0.229-0.124,0.52-0.371,0.871c-0.79,1.115-1.384,2.046-1.778,2.794c-0.26,0.519-0.648,1.42-1.167,2.703
		c-0.223,0.534-0.439,0.802-0.648,0.802c-0.297,0-0.445-0.191-0.445-0.573c0-0.274,0.278-1.1,0.834-2.474
		c0.099-0.244,0.148-0.458,0.148-0.642c0-0.244-0.118-0.488-0.353-0.733c-0.481-0.473-1.167-0.71-2.057-0.71
		c-0.852,0-1.513,0.26-1.982,0.779c-0.42,0.474-0.63,1.008-0.63,1.604c0,0.534,0.21,1.069,0.63,1.604
		c0.186,0.229,0.637,0.642,1.353,1.236c0.766,0.657,1.334,1.223,1.705,1.695c0.654,0.855,0.981,1.726,0.981,2.611
		c0,0.932-0.303,1.84-0.907,2.726c-0.531,0.764-1.31,1.344-2.335,1.741c-0.803,0.306-1.624,0.458-2.464,0.458
		c-1.211,0-2.656-0.45-4.336-1.352c-0.506,0.794-1.013,1.87-1.52,3.229c-0.147,0.428-0.37,0.642-0.667,0.642
		c-0.259,0-0.389-0.199-0.389-0.596c0-0.565,0.451-1.749,1.353-3.551c1-2,1.971-3.564,2.909-4.695
		c0.395-0.458,0.71-0.687,0.944-0.687c0.321,0,0.482,0.19,0.482,0.572c0,0.214-0.087,0.443-0.26,0.688
		c-0.025,0.045-0.284,0.382-0.778,1.008c-0.605,0.778-0.908,1.39-0.908,1.832c0,0.352,0.173,0.664,0.52,0.939
		c0.679,0.504,1.581,0.756,2.705,0.756c0.987,0,1.79-0.229,2.408-0.688c0.815-0.596,1.223-1.328,1.223-2.199
		c0-0.596-0.259-1.19-0.778-1.786c-0.21-0.244-0.679-0.672-1.408-1.283c-0.852-0.732-1.438-1.32-1.76-1.764
		c-0.531-0.763-0.797-1.542-0.797-2.336c0-1.252,0.47-2.283,1.408-3.092c0.815-0.718,1.834-1.077,3.058-1.077
		C293.838,22.97,294.999,23.298,296.283,23.955z"/>
</g>
<g>
</g>
<g>
</g>
<g>
</g>
<g>
</g>
<g>
</g>
<g>
</g>
<g>
</g>
<g>
</g>
<g>
</g>
<g>
</g>
<g>
</g>
<g>
</g>
<g>
</g>
<g>
</g>
<g>
</g>
</svg>
