<?xml version="1.0" encoding="utf-8"?>
<!-- Generator: Adobe Illustrator 16.0.3, SVG Export Plug-In . SVG Version: 6.00 Build 0)  -->
<!DOCTYPE svg PUBLIC "-//W3C//DTD SVG 1.1//EN" "http://www.w3.org/Graphics/SVG/1.1/DTD/svg11.dtd">
<svg version="1.1" id="Layer_1" xmlns="http://www.w3.org/2000/svg" xmlns:xlink="http://www.w3.org/1999/xlink" x="0px" y="0px"
	 width="299.48px" height="50px" viewBox="0 0 299.48 50" enable-background="new 0 0 299.48 50" xml:space="preserve">
<g>
	<path fill="#7D7D7D" d="M37.063,20.648c0,0.22-0.073,0.535-0.218,0.945c-0.145,0.41-0.343,0.864-0.593,1.362
		c-0.25,0.498-0.541,1.015-0.872,1.549c-0.331,0.535-0.682,1.029-1.053,1.483c-1.13,1.392-2.239,2.647-3.329,3.769
		c-1.089,1.12-2.179,2.142-3.268,3.065c-1.089,0.922-2.195,1.758-3.317,2.504c-1.122,0.748-2.272,1.429-3.45,2.044
		c-0.823,0.425-1.574,0.769-2.251,1.032c-0.678,0.264-1.348,0.466-2.01,0.604c-0.662,0.14-1.343,0.231-2.045,0.274
		c-0.702,0.045-1.481,0.066-2.336,0.066s-1.643-0.124-2.36-0.373c-0.718-0.249-1.336-0.634-1.852-1.154
		c-0.517-0.52-0.92-1.179-1.21-1.978c-0.291-0.798-0.436-1.747-0.436-2.845c0-0.615,0.097-1.322,0.291-2.121
		c0.194-0.798,0.46-1.633,0.799-2.505C7.89,27.5,8.29,26.617,8.75,25.724s0.956-1.747,1.489-2.56
		c0.533-0.813,1.093-1.564,1.683-2.252c0.589-0.688,1.182-1.26,1.779-1.714c0.323-0.249,0.727-0.491,1.21-0.725
		c0.484-0.234,0.984-0.443,1.501-0.626s1.029-0.33,1.538-0.439c0.508-0.11,0.948-0.165,1.319-0.165c0.5,0,1.025,0.11,1.574,0.33
		c0.548,0.22,1.053,0.495,1.513,0.824c0.46,0.33,0.835,0.689,1.125,1.077s0.436,0.758,0.436,1.109c0,0.264-0.048,0.535-0.146,0.813
		c-0.097,0.278-0.226,0.535-0.387,0.769c-0.162,0.234-0.339,0.429-0.533,0.582c-0.194,0.154-0.396,0.231-0.605,0.231
		c-0.372,0-0.67-0.143-0.896-0.428c-0.226-0.286-0.448-0.601-0.666-0.945c-0.218-0.344-0.464-0.659-0.738-0.944
		c-0.274-0.286-0.653-0.429-1.138-0.429c-0.727,0-1.44,0.234-2.143,0.703s-1.376,1.081-2.021,1.835
		c-0.646,0.754-1.243,1.597-1.792,2.526c-0.549,0.931-1.025,1.86-1.429,2.791c-0.403,0.93-0.718,1.809-0.944,2.637
		c-0.227,0.827-0.339,1.513-0.339,2.054c0,0.602,0.125,1.11,0.375,1.527c0.25,0.418,0.573,0.758,0.968,1.021
		s0.839,0.455,1.332,0.572s0.98,0.176,1.465,0.176c0.548,0,1.174-0.073,1.876-0.221c0.702-0.146,1.408-0.336,2.118-0.57
		c0.71-0.234,1.396-0.498,2.058-0.791c0.662-0.293,1.234-0.594,1.719-0.901c1.275-0.791,2.55-1.718,3.825-2.779
		c1.275-1.063,2.489-2.179,3.644-3.351c1.154-1.173,2.219-2.359,3.196-3.56c0.976-1.201,1.812-2.344,2.505-3.428
		c0.129-0.19,0.267-0.326,0.412-0.407c0.146-0.08,0.291-0.121,0.436-0.121c0.258,0,0.488,0.081,0.69,0.242
		C36.962,20.348,37.063,20.501,37.063,20.648z"/>
	<path fill="#7D7D7D" d="M56.286,27.174c0,0.688-0.46,1.766-1.38,3.229c-0.178,0.279-0.424,0.612-0.739,1
		c-0.314,0.389-0.666,0.791-1.053,1.209c-0.388,0.417-0.791,0.842-1.21,1.274c-0.42,0.432-0.832,0.831-1.235,1.197
		c-0.614,0.557-1.287,1.099-2.021,1.626c-0.735,0.527-1.509,1.004-2.324,1.428c-0.815,0.426-1.655,0.766-2.518,1.022
		c-0.863,0.256-1.715,0.384-2.554,0.384c-1.114,0-2.155-0.183-3.123-0.549c-0.969-0.366-1.812-0.93-2.53-1.691
		s-1.283-1.718-1.694-2.868c-0.412-1.149-0.618-2.508-0.618-4.075c0-1.069,0.057-2.187,0.169-3.352
		c0.113-1.164,0.258-2.333,0.436-3.504c0.177-1.172,0.375-2.333,0.593-3.483c0.218-1.149,0.44-2.259,0.666-3.329
		c0.145-0.732,0.27-1.333,0.375-1.802s0.198-0.901,0.279-1.296c0.081-0.396,0.153-0.794,0.218-1.197
		c0.064-0.403,0.145-0.905,0.242-1.505c0.064-0.41,0.125-0.772,0.182-1.087c0.056-0.315,0.101-0.575,0.133-0.78
		c0.064-0.352,0.173-0.688,0.327-1.011c0.153-0.322,0.347-0.608,0.581-0.857c0.233-0.249,0.504-0.447,0.811-0.593
		c0.306-0.146,0.645-0.22,1.017-0.22c0.775,0,1.348,0.33,1.719,0.989c-0.097,0.454-0.198,0.89-0.302,1.307
		c-0.105,0.418-0.198,0.861-0.279,1.33c-0.403,1.846-0.734,3.34-0.992,4.482c-0.259,1.143-0.444,1.948-0.557,2.417
		c-0.194,0.923-0.399,1.919-0.617,2.988s-0.42,2.161-0.605,3.274s-0.335,2.212-0.448,3.296c-0.113,1.084-0.169,2.095-0.169,3.032
		c0,1.011,0.088,1.93,0.266,2.758c0.178,0.827,0.464,1.534,0.859,2.12s0.904,1.04,1.525,1.362c0.621,0.322,1.376,0.483,2.264,0.483
		c0.968,0,1.92-0.194,2.857-0.582c0.936-0.389,1.835-0.883,2.699-1.483c0.863-0.601,1.683-1.264,2.458-1.988
		c0.774-0.726,1.484-1.425,2.13-2.099c0.516-0.557,0.968-1.036,1.355-1.439c0.388-0.402,0.71-0.743,0.969-1.021
		c0.209-0.22,0.448-0.446,0.714-0.682c0.267-0.233,0.512-0.352,0.739-0.352C56.156,26.536,56.286,26.749,56.286,27.174z"/>
	<path fill="#7D7D7D" d="M87.976,22.955c0,0.498-0.158,1.029-0.472,1.593c-0.315,0.564-0.666,1.081-1.053,1.55
		c-1.017,1.245-2.078,2.384-3.184,3.416c-1.106,1.033-2.224,2.011-3.353,2.934c-1.178,0.967-2.353,1.722-3.522,2.263
		c-1.17,0.543-2.224,0.813-3.16,0.813c-0.403,0-0.803-0.088-1.198-0.264s-0.767-0.406-1.114-0.692c-0.347-0.285-0.653-0.618-0.92-1
		c-0.266-0.38-0.472-0.775-0.617-1.186c-0.081-0.221-0.154-0.473-0.218-0.759c-0.065-0.285-0.129-0.549-0.194-0.791
		c-0.065-0.241-0.137-0.446-0.218-0.615c-0.081-0.168-0.169-0.253-0.267-0.253c-0.064,0-0.202,0.096-0.412,0.286
		s-0.456,0.436-0.738,0.736c-0.283,0.3-0.585,0.637-0.908,1.011c-0.323,0.373-0.642,0.736-0.957,1.088
		c-0.314,0.352-0.597,0.674-0.847,0.967c-0.25,0.293-0.448,0.513-0.593,0.658c-0.5,0.514-1.094,1.037-1.779,1.571
		c-0.686,0.535-1.372,1.022-2.058,1.462s-1.315,0.798-1.888,1.076c-0.573,0.278-0.997,0.418-1.271,0.418
		c-0.614,0-1.207-0.092-1.779-0.275c-0.573-0.183-1.078-0.45-1.513-0.802c-0.436-0.352-0.787-0.783-1.053-1.296
		c-0.266-0.513-0.399-1.1-0.399-1.758c0-1.084,0.238-2.322,0.714-3.714c0.476-1.392,1.105-2.805,1.888-4.241
		c0.783-1.435,1.683-2.815,2.699-4.142c1.017-1.325,2.074-2.464,3.172-3.417c1.274-1.099,2.61-1.908,4.006-2.428
		c1.396-0.52,2.829-0.78,4.297-0.78c0.274,0,0.512,0.051,0.714,0.154c0.202,0.103,0.375,0.234,0.521,0.396
		c0.145,0.161,0.274,0.341,0.387,0.538c0.113,0.198,0.226,0.399,0.339,0.604c0.064,0.132,0.202,0.278,0.412,0.439
		c0.209,0.161,0.428,0.326,0.654,0.494c0.226,0.169,0.424,0.333,0.593,0.495s0.254,0.315,0.254,0.461
		c0,0.308-0.069,0.648-0.206,1.021c-0.137,0.374-0.287,0.806-0.448,1.297c-0.162,0.491-0.311,1.047-0.448,1.67
		s-0.206,1.336-0.206,2.143c0,0.526,0.052,1.128,0.157,1.802s0.267,1.314,0.484,1.922c0.218,0.608,0.496,1.117,0.835,1.527
		c0.339,0.41,0.734,0.615,1.187,0.615c0.548,0,1.097-0.143,1.646-0.429c0.549-0.285,1.178-0.685,1.889-1.197
		c1.582-1.143,3.083-2.396,4.503-3.757c1.42-1.363,2.873-2.718,4.358-4.065c0.258-0.234,0.5-0.352,0.726-0.352
		C87.79,22.164,87.976,22.428,87.976,22.955z M69.044,20.428c0-0.029-0.024-0.11-0.073-0.242s-0.121-0.267-0.218-0.406
		c-0.097-0.139-0.214-0.264-0.351-0.374c-0.138-0.109-0.287-0.165-0.448-0.165h-0.048c-0.597,0.059-1.234,0.238-1.913,0.539
		c-0.678,0.3-1.396,0.762-2.154,1.384c-0.759,0.623-1.558,1.425-2.397,2.406c-0.839,0.981-1.711,2.175-2.615,3.581
		c-0.274,0.426-0.577,0.891-0.908,1.396c-0.331,0.506-0.646,1.063-0.944,1.67c-0.299,0.608-0.549,1.257-0.75,1.944
		c-0.202,0.689-0.303,1.414-0.303,2.176c0,0.454,0.182,0.799,0.545,1.033s0.738,0.352,1.125,0.352c0.403,0,0.928-0.202,1.574-0.604
		c0.646-0.403,1.344-0.938,2.094-1.604c0.75-0.666,1.517-1.428,2.3-2.285c0.783-0.856,1.509-1.739,2.179-2.647
		c0.669-0.908,1.25-1.802,1.743-2.681c0.492-0.879,0.827-1.677,1.004-2.395c0.048-0.22,0.105-0.479,0.169-0.78
		s0.125-0.601,0.182-0.901c0.057-0.3,0.105-0.578,0.146-0.835C69.023,20.732,69.044,20.545,69.044,20.428z"/>
	<path fill="#7D7D7D" d="M88.605,20.824c0.161,0,0.327,0.037,0.496,0.11s0.327,0.165,0.472,0.274
		c0.146,0.11,0.278,0.228,0.399,0.352c0.121,0.125,0.214,0.238,0.278,0.341c0.226,0.337,0.319,0.82,0.279,1.45
		c-0.041,0.63-0.166,1.384-0.375,2.263c-0.178,0.894-0.331,1.677-0.46,2.351c-0.129,0.674-0.23,1.329-0.303,1.967
		c-0.072,0.637-0.117,1.304-0.133,1.999c-0.017,0.696,0,1.513,0.048,2.45c0.419-0.776,0.831-1.63,1.234-2.56
		c0.403-0.931,0.86-1.894,1.368-2.89s1.097-2.003,1.767-3.021c0.67-1.018,1.465-2.01,2.385-2.977
		c0.371-0.381,0.807-0.736,1.308-1.066c0.5-0.329,1.032-0.619,1.598-0.868c0.565-0.249,1.142-0.454,1.731-0.615
		c0.589-0.161,1.15-0.271,1.683-0.33c0.403-0.044,0.839-0.025,1.307,0.055c0.468,0.081,0.908,0.213,1.32,0.396
		c0.411,0.184,0.758,0.414,1.041,0.692c0.282,0.278,0.448,0.593,0.496,0.945c0.016,0.103-0.012,0.268-0.085,0.495
		c-0.072,0.227-0.169,0.454-0.291,0.681c-0.121,0.228-0.254,0.433-0.399,0.615c-0.145,0.184-0.282,0.282-0.412,0.297
		c-0.048,0-0.186-0.018-0.411-0.055c-0.227-0.037-0.48-0.077-0.763-0.121c-0.283-0.044-0.561-0.084-0.835-0.121
		c-0.274-0.036-0.484-0.055-0.629-0.055c-0.5,0-0.968,0.037-1.404,0.11c-0.436,0.073-0.859,0.205-1.271,0.396
		s-0.827,0.447-1.247,0.769c-0.42,0.322-0.872,0.725-1.356,1.209c-0.484,0.483-0.98,1.087-1.489,1.813
		c-0.508,0.725-1.001,1.501-1.477,2.329C94,31.33,93.552,32.18,93.133,33.052c-0.42,0.871-0.791,1.688-1.114,2.449
		c-0.194,0.455-0.379,0.941-0.557,1.462c-0.178,0.52-0.348,1.051-0.509,1.593s-0.307,1.088-0.436,1.637
		c-0.129,0.55-0.242,1.073-0.339,1.571c-0.017,0.117-0.142,0.238-0.375,0.362c-0.234,0.125-0.504,0.238-0.811,0.341
		s-0.597,0.187-0.872,0.253c-0.274,0.065-0.452,0.099-0.533,0.099c-0.436,0.044-0.795-0.103-1.077-0.439
		c-0.283-0.337-0.504-0.762-0.666-1.274c-0.162-0.513-0.271-1.065-0.327-1.659c-0.057-0.593-0.084-1.124-0.084-1.593
		c0-0.498,0.016-1.128,0.048-1.89c0.032-0.762,0.068-1.567,0.109-2.417c0.04-0.85,0.081-1.695,0.121-2.538
		c0.04-0.842,0.076-1.593,0.109-2.252c0.064-0.703,0.097-1.289,0.097-1.758s-0.012-0.89-0.036-1.264
		c-0.024-0.373-0.044-0.739-0.061-1.099c-0.016-0.358,0-0.78,0.048-1.263c0.032-0.352,0.137-0.681,0.315-0.989
		c0.177-0.308,0.395-0.575,0.653-0.802s0.545-0.41,0.86-0.55C88.012,20.894,88.315,20.824,88.605,20.824z"/>
	<path fill="#7D7D7D" d="M142.884,31.458c0,0.133-0.065,0.297-0.194,0.495c-0.129,0.197-0.315,0.414-0.557,0.647
		c-0.242,0.235-0.532,0.484-0.871,0.748c-0.339,0.264-0.71,0.52-1.114,0.769c-0.629,0.396-1.288,0.78-1.973,1.153
		c-0.686,0.374-1.425,0.711-2.215,1.011c-0.791,0.301-1.643,0.538-2.554,0.714c-0.912,0.176-1.909,0.264-2.99,0.264
		c-1.324,0-2.538-0.201-3.644-0.604c-1.106-0.403-2.155-0.879-3.147-1.429c-0.993-0.549-1.957-1.113-2.893-1.691
		c-0.936-0.579-1.896-1.044-2.881-1.396c-0.565,0.557-1.069,1.18-1.513,1.867c-0.444,0.689-0.844,1.389-1.198,2.099
		c-0.355,0.711-0.67,1.403-0.944,2.077s-0.521,1.273-0.738,1.801s-0.412,0.952-0.581,1.275c-0.169,0.321-0.327,0.482-0.472,0.482
		c-0.339,0-0.686-0.062-1.041-0.187c-0.355-0.124-0.682-0.322-0.98-0.593c-0.299-0.271-0.541-0.615-0.727-1.033
		c-0.186-0.417-0.278-0.919-0.278-1.505c0-0.703,0.057-1.505,0.169-2.406c0.113-0.9,0.262-1.86,0.448-2.878
		c0.185-1.019,0.395-2.069,0.629-3.153c0.234-1.084,0.476-2.16,0.726-3.229c0.25-1.07,0.497-2.11,0.738-3.121
		c0.242-1.011,0.46-1.948,0.654-2.813c0.081-0.352,0.182-0.806,0.303-1.362s0.254-1.172,0.399-1.846
		c0.146-0.674,0.291-1.377,0.436-2.109c0.145-0.732,0.286-1.443,0.423-2.131s0.258-1.336,0.363-1.944s0.189-1.117,0.254-1.527
		c0.016-0.176,0.06-0.429,0.133-0.758c0.073-0.33,0.209-0.656,0.412-0.978c0.202-0.322,0.504-0.604,0.908-0.846
		c0.403-0.241,0.944-0.362,1.622-0.362c0.388,0,0.722,0.216,1.005,0.648c0.282,0.432,0.424,0.956,0.424,1.571
		c0,0.132-0.048,0.41-0.146,0.835c-0.097,0.425-0.226,0.941-0.387,1.549c-0.162,0.608-0.343,1.267-0.545,1.978
		s-0.403,1.421-0.605,2.131c-0.202,0.711-0.399,1.385-0.593,2.021c-0.194,0.638-0.355,1.183-0.484,1.637
		c-0.258,0.85-0.521,1.732-0.787,2.648s-0.529,1.831-0.787,2.746c-0.259,0.916-0.5,1.81-0.727,2.681
		c-0.226,0.872-0.436,1.674-0.629,2.406s-0.355,1.381-0.484,1.944c-0.129,0.564-0.218,0.993-0.266,1.285
		c-0.033,0.147-0.024,0.268,0.024,0.363c0.048,0.095,0.112,0.143,0.193,0.143c0.032,0,0.149-0.113,0.351-0.341
		c0.202-0.227,0.452-0.523,0.75-0.89c0.298-0.366,0.633-0.78,1.005-1.241c0.371-0.462,0.754-0.935,1.15-1.417
		c0.396-0.484,0.783-0.956,1.162-1.418c0.379-0.461,0.722-0.867,1.029-1.219c0.984-1.114,2.001-2.223,3.05-3.329
		s2.05-2.099,3.002-2.978c0.952-0.879,1.812-1.593,2.578-2.143c0.767-0.549,1.352-0.824,1.755-0.824
		c0.113,0,0.262,0.033,0.448,0.099c0.186,0.065,0.367,0.161,0.545,0.285c0.177,0.125,0.331,0.268,0.46,0.429
		c0.129,0.161,0.193,0.33,0.193,0.505c-0.032,0.85-0.383,1.623-1.053,2.318c-0.67,0.696-1.562,1.388-2.675,2.077
		c-0.823,0.542-1.63,1.135-2.421,1.78c-0.791,0.645-1.513,1.264-2.167,1.856c-0.654,0.594-1.203,1.125-1.646,1.594
		s-0.738,0.791-0.883,0.967c0.629,0.41,1.384,0.86,2.264,1.351c0.879,0.491,1.812,0.952,2.796,1.385
		c0.984,0.432,1.985,0.795,3.002,1.087c1.017,0.294,1.969,0.439,2.857,0.439c1.129,0,2.159-0.065,3.087-0.197
		c0.928-0.132,1.767-0.304,2.518-0.517c0.75-0.212,1.429-0.446,2.034-0.703c0.605-0.256,1.166-0.517,1.683-0.78
		c0.209-0.102,0.436-0.219,0.678-0.352c0.242-0.131,0.476-0.248,0.702-0.352c0.226-0.102,0.432-0.189,0.618-0.264
		c0.185-0.072,0.334-0.109,0.448-0.109c0.081,0,0.161,0.069,0.242,0.209C142.844,30.993,142.884,31.194,142.884,31.458z"/>
	<path fill="#7D7D7D" d="M165.084,29.569c0,0.513-0.209,1.069-0.629,1.67s-1.018,1.273-1.791,2.021
		c-0.889,0.85-1.865,1.637-2.93,2.361c-1.066,0.726-2.164,1.355-3.293,1.89c-1.13,0.535-2.276,0.956-3.438,1.264
		s-2.284,0.462-3.365,0.462c-2.534,0-4.495-0.74-5.883-2.22c-1.388-1.479-2.082-3.647-2.082-6.504c0-0.908,0.088-1.835,0.266-2.779
		c0.178-0.945,0.44-1.879,0.787-2.802c0.347-0.923,0.783-1.816,1.307-2.681s1.134-1.67,1.828-2.417
		c0.436-0.454,0.92-0.916,1.453-1.384c0.532-0.469,1.122-0.89,1.767-1.263c0.646-0.374,1.352-0.678,2.118-0.912
		s1.602-0.352,2.506-0.352c0.646,0,1.227,0.114,1.744,0.341c0.516,0.227,0.951,0.516,1.307,0.868s0.625,0.747,0.811,1.187
		s0.279,0.872,0.279,1.296c0,0.894-0.267,1.798-0.799,2.714c-0.533,0.916-1.283,1.838-2.252,2.769c-0.968,0.93-2.13,1.86-3.486,2.79
		c-1.356,0.931-2.865,1.857-4.527,2.779c-0.227,0.118-0.452,0.246-0.678,0.385c-0.226,0.14-0.339,0.312-0.339,0.517
		c0,0.439,0.064,0.901,0.194,1.384c0.129,0.484,0.363,0.927,0.702,1.33c0.339,0.402,0.795,0.736,1.368,1s1.303,0.395,2.191,0.395
		c1.13,0,2.28-0.164,3.45-0.494c1.17-0.329,2.316-0.787,3.438-1.373c1.121-0.586,2.211-1.281,3.268-2.088
		c1.057-0.805,2.047-1.677,2.967-2.614c0.516-0.513,0.928-0.769,1.234-0.769c0.178,0,0.307,0.095,0.387,0.285
		S165.084,29.13,165.084,29.569z M153.851,20.187c0-0.161-0.049-0.308-0.146-0.439s-0.214-0.242-0.351-0.33
		s-0.283-0.157-0.436-0.208c-0.154-0.051-0.287-0.077-0.399-0.077c-0.71,0-1.437,0.23-2.179,0.692
		c-0.743,0.461-1.437,1.102-2.082,1.922s-1.21,1.794-1.695,2.922c-0.484,1.128-0.815,2.352-0.992,3.67
		c0.226-0.133,0.524-0.322,0.896-0.572c0.371-0.248,0.771-0.523,1.198-0.823c0.428-0.301,0.855-0.604,1.283-0.912
		s0.811-0.593,1.15-0.857c0.742-0.571,1.356-1.08,1.84-1.527c0.484-0.447,0.867-0.857,1.15-1.23c0.282-0.374,0.48-0.74,0.593-1.099
		C153.794,20.959,153.851,20.582,153.851,20.187z"/>
</g>
<g>
	<path fill="#003277" d="M164.195,40.489V5.794h4.329v15.315c2.285-3.34,5.083-5.01,8.394-5.01c2.08,0,3.731,0.656,4.955,1.967
		c1.223,1.311,1.834,3.072,1.834,5.284v17.139h-4.328V24.757c0-1.772-0.26-3.036-0.78-3.79c-0.52-0.754-1.381-1.132-2.581-1.132
		c-2.652,0-5.149,1.736-7.493,5.208v15.447H164.195z"/>
	<path fill="#003277" d="M201.615,41.038c-3.501,0-6.272-1.12-8.316-3.361c-2.043-2.241-3.064-5.28-3.064-9.118
		c0-3.838,1.021-6.874,3.064-9.108c2.044-2.233,4.815-3.351,8.316-3.351s6.273,1.117,8.317,3.351
		c2.043,2.234,3.065,5.27,3.065,9.108c0,3.838-1.022,6.877-3.065,9.118C207.889,39.918,205.116,41.038,201.615,41.038z
		 M201.604,37.786c2.15,0,3.817-0.805,5.002-2.417c1.185-1.611,1.776-3.881,1.776-6.811c0-2.93-0.592-5.197-1.776-6.801
		c-1.185-1.604-2.852-2.406-5.002-2.406c-2.149,0-3.813,0.802-4.99,2.406c-1.178,1.604-1.767,3.871-1.767,6.801
		c0,2.93,0.589,5.199,1.767,6.811C197.791,36.981,199.455,37.786,201.604,37.786z"/>
	<path fill="#003277" d="M234.684,40.489v-4.482c-2.3,3.354-5.091,5.031-8.371,5.031c-2.081,0-3.736-0.655-4.967-1.966
		c-1.23-1.312-1.846-3.08-1.846-5.307V16.627h4.329v15.732c0,1.787,0.26,3.059,0.78,3.813c0.52,0.754,1.388,1.132,2.604,1.132
		c2.637,0,5.127-1.736,7.471-5.208V16.627h4.328v23.862H234.684z"/>
	<path fill="#003277" d="M246.813,39.654v-3.977c2.827,1.405,5.288,2.108,7.383,2.108c1.245,0,2.278-0.336,3.099-1.01
		s1.23-1.517,1.23-2.527c0-1.479-1.15-2.702-3.45-3.669l-2.526-1.077c-3.735-1.553-5.603-3.787-5.603-6.702
		c0-2.08,0.735-3.717,2.208-4.911c1.472-1.194,3.489-1.791,6.054-1.791c1.332,0,2.98,0.183,4.943,0.549l0.9,0.176v3.604
		c-2.416-0.718-4.343-1.077-5.778-1.077c-1.26,0-2.267,0.274-3.021,0.824c-0.754,0.549-1.132,1.285-1.132,2.208
		c0,1.304,1.055,2.402,3.164,3.296l2.088,0.879c2.358,0.996,4.028,2.047,5.01,3.153s1.473,2.486,1.473,4.142
		c0,2.095-0.828,3.816-2.483,5.163c-1.655,1.349-3.772,2.021-6.351,2.021C252.043,41.038,249.64,40.577,246.813,39.654z"/>
	<path fill="#003277" d="M288.121,39.72c-2.9,0.879-5.383,1.318-7.448,1.318c-3.53,0-6.401-1.166-8.613-3.501
		c-2.212-2.334-3.317-5.36-3.317-9.078c0-3.615,0.978-6.578,2.933-8.891c1.956-2.313,4.457-3.469,7.504-3.469
		c2.886,0,5.116,1.029,6.69,3.087c1.575,2.059,2.362,4.977,2.362,8.757l-0.022,1.318h-15.051c0.63,5.654,3.406,8.481,8.328,8.481
		c1.801,0,4.013-0.491,6.635-1.473V39.72z M273.355,26.01h10.525c0-4.439-1.655-6.658-4.966-6.658
		C275.59,19.352,273.736,21.571,273.355,26.01z"/>
</g>
<g>
</g>
<g>
</g>
<g>
</g>
<g>
</g>
<g>
</g>
<g>
</g>
<g>
</g>
<g>
</g>
<g>
</g>
<g>
</g>
<g>
</g>
<g>
</g>
<g>
</g>
<g>
</g>
<g>
</g>
</svg>
