<?xml version="1.0" encoding="utf-8"?>
<!-- Generator: Adobe Illustrator 16.0.3, SVG Export Plug-In . SVG Version: 6.00 Build 0)  -->
<!DOCTYPE svg PUBLIC "-//W3C//DTD SVG 1.1//EN" "http://www.w3.org/Graphics/SVG/1.1/DTD/svg11.dtd">
<svg version="1.1" id="Layer_1" xmlns="http://www.w3.org/2000/svg" xmlns:xlink="http://www.w3.org/1999/xlink" x="0px" y="0px"
	 width="299.48px" height="50px" viewBox="0 0 299.48 50" enable-background="new 0 0 299.48 50" xml:space="preserve">
<g>
	<path fill="#323232" d="M37.063,20.648c0,0.22-0.073,0.535-0.218,0.945c-0.146,0.41-0.344,0.864-0.594,1.362
		s-0.541,1.015-0.872,1.549c-0.331,0.535-0.682,1.029-1.053,1.482c-1.13,1.393-2.239,2.647-3.329,3.77
		c-1.089,1.12-2.179,2.143-3.268,3.064c-1.089,0.923-2.195,1.759-3.317,2.505c-1.122,0.748-2.271,1.429-3.45,2.044
		c-0.822,0.425-1.573,0.77-2.251,1.031c-0.678,0.265-1.348,0.467-2.01,0.604c-0.662,0.14-1.343,0.231-2.045,0.274
		c-0.702,0.045-1.481,0.065-2.336,0.065c-0.855,0-1.643-0.124-2.36-0.372c-0.718-0.25-1.336-0.635-1.852-1.154
		c-0.518-0.521-0.92-1.18-1.21-1.979c-0.291-0.798-0.437-1.747-0.437-2.845c0-0.615,0.098-1.322,0.291-2.121
		c0.194-0.798,0.46-1.633,0.8-2.505C7.89,27.5,8.29,26.617,8.75,25.725c0.46-0.894,0.956-1.748,1.489-2.561s1.093-1.564,1.683-2.252
		s1.183-1.26,1.779-1.714c0.323-0.249,0.728-0.491,1.21-0.725c0.484-0.234,0.984-0.443,1.501-0.626
		c0.518-0.183,1.029-0.33,1.538-0.439c0.508-0.11,0.948-0.165,1.319-0.165c0.5,0,1.024,0.11,1.573,0.33
		c0.549,0.22,1.054,0.495,1.514,0.824c0.46,0.33,0.835,0.689,1.125,1.077c0.29,0.388,0.436,0.758,0.436,1.109
		c0,0.264-0.048,0.535-0.146,0.813s-0.227,0.535-0.388,0.769s-0.339,0.429-0.532,0.582c-0.194,0.154-0.396,0.231-0.605,0.231
		c-0.372,0-0.67-0.143-0.896-0.428c-0.227-0.286-0.448-0.601-0.666-0.945c-0.219-0.344-0.464-0.659-0.738-0.944
		c-0.274-0.286-0.653-0.429-1.138-0.429c-0.728,0-1.44,0.234-2.144,0.703c-0.703,0.469-1.376,1.081-2.021,1.835
		c-0.646,0.754-1.243,1.597-1.792,2.526c-0.549,0.931-1.025,1.86-1.43,2.791c-0.402,0.931-0.718,1.81-0.943,2.638
		c-0.228,0.826-0.339,1.512-0.339,2.053c0,0.603,0.125,1.111,0.375,1.527c0.25,0.418,0.572,0.758,0.968,1.021
		c0.395,0.263,0.839,0.455,1.332,0.572s0.979,0.176,1.465,0.176c0.548,0,1.174-0.073,1.876-0.221
		c0.702-0.146,1.408-0.336,2.118-0.57s1.396-0.498,2.058-0.791s1.234-0.594,1.719-0.901c1.275-0.791,2.551-1.718,3.825-2.778
		c1.275-1.063,2.489-2.18,3.645-3.352c1.153-1.173,2.219-2.359,3.195-3.56c0.977-1.201,1.813-2.344,2.506-3.428
		c0.129-0.19,0.267-0.326,0.411-0.407c0.146-0.08,0.291-0.121,0.437-0.121c0.258,0,0.488,0.081,0.689,0.242
		C36.962,20.348,37.063,20.501,37.063,20.648z"/>
	<path fill="#323232" d="M56.286,27.174c0,0.688-0.46,1.766-1.38,3.229c-0.178,0.279-0.424,0.613-0.739,1
		c-0.313,0.39-0.666,0.791-1.053,1.209c-0.388,0.418-0.791,0.843-1.21,1.274c-0.42,0.433-0.832,0.831-1.235,1.197
		c-0.613,0.558-1.287,1.099-2.021,1.626c-0.735,0.527-1.509,1.004-2.324,1.428c-0.815,0.426-1.655,0.766-2.518,1.022
		c-0.863,0.256-1.716,0.384-2.555,0.384c-1.113,0-2.154-0.184-3.123-0.549c-0.969-0.366-1.812-0.93-2.529-1.691
		c-0.719-0.761-1.283-1.718-1.694-2.867c-0.412-1.149-0.618-2.509-0.618-4.076c0-1.068,0.057-2.187,0.169-3.352
		c0.113-1.164,0.258-2.333,0.437-3.504c0.177-1.172,0.375-2.333,0.593-3.483c0.218-1.149,0.439-2.259,0.666-3.329
		c0.145-0.732,0.27-1.333,0.375-1.802c0.104-0.469,0.198-0.901,0.279-1.296s0.152-0.794,0.218-1.197
		c0.063-0.403,0.145-0.905,0.242-1.505c0.063-0.41,0.125-0.772,0.182-1.087c0.056-0.315,0.101-0.575,0.133-0.78
		c0.064-0.352,0.173-0.688,0.327-1.011c0.153-0.322,0.347-0.608,0.581-0.857c0.233-0.249,0.504-0.447,0.811-0.593
		s0.646-0.22,1.018-0.22c0.774,0,1.348,0.33,1.719,0.989c-0.097,0.454-0.198,0.89-0.302,1.307c-0.105,0.418-0.198,0.861-0.279,1.33
		c-0.403,1.846-0.733,3.34-0.992,4.482c-0.259,1.143-0.443,1.948-0.557,2.417c-0.194,0.923-0.399,1.919-0.617,2.988
		s-0.42,2.161-0.604,3.274c-0.186,1.113-0.335,2.212-0.448,3.296s-0.169,2.095-0.169,3.032c0,1.011,0.088,1.93,0.266,2.758
		c0.178,0.827,0.464,1.534,0.859,2.12c0.395,0.586,0.904,1.04,1.524,1.362c0.621,0.322,1.376,0.482,2.265,0.482
		c0.968,0,1.92-0.193,2.856-0.582s1.835-0.883,2.699-1.482c0.863-0.602,1.683-1.264,2.458-1.988c0.774-0.727,1.484-1.425,2.13-2.1
		c0.517-0.557,0.968-1.035,1.355-1.438c0.388-0.401,0.71-0.743,0.969-1.021c0.209-0.221,0.448-0.446,0.714-0.682
		c0.268-0.234,0.512-0.353,0.739-0.353C56.156,26.536,56.286,26.749,56.286,27.174z"/>
	<path fill="#323232" d="M87.976,22.955c0,0.498-0.158,1.029-0.473,1.593s-0.666,1.081-1.053,1.55
		c-1.017,1.245-2.078,2.385-3.184,3.416c-1.106,1.033-2.225,2.012-3.354,2.935c-1.178,0.967-2.353,1.722-3.521,2.263
		c-1.17,0.543-2.225,0.813-3.16,0.813c-0.403,0-0.803-0.088-1.198-0.264c-0.395-0.176-0.767-0.406-1.114-0.691
		c-0.347-0.285-0.652-0.618-0.92-1c-0.266-0.381-0.472-0.775-0.617-1.187c-0.081-0.221-0.153-0.473-0.218-0.759
		c-0.064-0.285-0.129-0.549-0.193-0.791c-0.065-0.241-0.138-0.446-0.219-0.615c-0.081-0.168-0.169-0.253-0.267-0.253
		c-0.064,0-0.202,0.097-0.412,0.286s-0.456,0.436-0.738,0.736c-0.282,0.3-0.585,0.637-0.907,1.011
		c-0.323,0.373-0.643,0.735-0.957,1.088s-0.598,0.674-0.848,0.967s-0.448,0.513-0.593,0.658c-0.5,0.515-1.094,1.037-1.779,1.571
		c-0.686,0.535-1.372,1.021-2.058,1.462c-0.687,0.44-1.315,0.798-1.888,1.075c-0.573,0.279-0.997,0.418-1.271,0.418
		c-0.614,0-1.207-0.092-1.779-0.274s-1.077-0.45-1.513-0.802s-0.787-0.783-1.053-1.296c-0.267-0.513-0.399-1.101-0.399-1.759
		c0-1.084,0.238-2.321,0.714-3.713c0.477-1.393,1.105-2.806,1.889-4.242c0.782-1.435,1.683-2.814,2.698-4.142
		c1.018-1.325,2.074-2.464,3.173-3.417c1.273-1.099,2.609-1.908,4.006-2.428c1.396-0.52,2.829-0.78,4.297-0.78
		c0.273,0,0.512,0.051,0.714,0.154s0.375,0.234,0.521,0.396c0.146,0.161,0.274,0.341,0.388,0.538
		c0.112,0.198,0.226,0.399,0.339,0.604c0.063,0.132,0.202,0.278,0.412,0.439c0.209,0.161,0.428,0.326,0.653,0.494
		c0.227,0.169,0.425,0.333,0.594,0.495s0.254,0.315,0.254,0.461c0,0.308-0.069,0.648-0.206,1.021
		c-0.137,0.374-0.287,0.806-0.448,1.297c-0.162,0.491-0.311,1.047-0.448,1.67c-0.137,0.623-0.206,1.336-0.206,2.143
		c0,0.526,0.053,1.129,0.157,1.803c0.105,0.674,0.268,1.313,0.484,1.922c0.218,0.607,0.496,1.117,0.835,1.527
		c0.339,0.409,0.733,0.614,1.187,0.614c0.548,0,1.098-0.144,1.646-0.429s1.178-0.686,1.889-1.197
		c1.582-1.143,3.083-2.396,4.503-3.757c1.42-1.363,2.873-2.718,4.358-4.065c0.258-0.234,0.5-0.352,0.726-0.352
		C87.79,22.164,87.976,22.428,87.976,22.955z M69.044,20.428c0-0.029-0.023-0.11-0.072-0.242c-0.05-0.132-0.121-0.267-0.219-0.406
		c-0.097-0.139-0.214-0.264-0.351-0.374c-0.138-0.109-0.287-0.165-0.448-0.165h-0.048c-0.597,0.059-1.234,0.238-1.913,0.539
		c-0.678,0.3-1.396,0.762-2.154,1.384c-0.759,0.623-1.558,1.425-2.396,2.406s-1.711,2.175-2.615,3.581
		c-0.273,0.427-0.577,0.892-0.908,1.396c-0.331,0.506-0.646,1.063-0.943,1.67c-0.3,0.608-0.55,1.258-0.75,1.944
		c-0.202,0.688-0.304,1.414-0.304,2.176c0,0.454,0.183,0.799,0.545,1.033c0.363,0.233,0.738,0.353,1.125,0.353
		c0.403,0,0.929-0.203,1.574-0.604c0.646-0.403,1.344-0.938,2.094-1.604s1.518-1.428,2.301-2.285
		c0.782-0.855,1.509-1.738,2.179-2.646c0.669-0.908,1.25-1.803,1.743-2.682c0.492-0.878,0.827-1.676,1.004-2.395
		c0.048-0.22,0.104-0.479,0.169-0.78c0.063-0.301,0.125-0.601,0.182-0.901c0.058-0.3,0.105-0.578,0.146-0.835
		C69.023,20.732,69.044,20.545,69.044,20.428z"/>
	<path fill="#323232" d="M88.605,20.824c0.161,0,0.327,0.037,0.496,0.11c0.169,0.073,0.327,0.165,0.472,0.274
		c0.146,0.11,0.278,0.228,0.399,0.352c0.12,0.125,0.214,0.238,0.277,0.341c0.227,0.337,0.319,0.82,0.279,1.45
		c-0.041,0.63-0.166,1.384-0.375,2.263c-0.178,0.894-0.331,1.677-0.46,2.351s-0.23,1.329-0.303,1.967
		c-0.072,0.637-0.117,1.305-0.134,2s0,1.512,0.049,2.449c0.419-0.775,0.831-1.63,1.233-2.561c0.403-0.93,0.86-1.894,1.368-2.889
		c0.508-0.996,1.097-2.004,1.767-3.021c0.671-1.018,1.466-2.01,2.386-2.977c0.371-0.381,0.807-0.736,1.308-1.066
		c0.5-0.329,1.032-0.619,1.598-0.868s1.143-0.454,1.731-0.615c0.589-0.161,1.15-0.271,1.683-0.33
		c0.403-0.044,0.839-0.025,1.308,0.055c0.468,0.081,0.908,0.213,1.319,0.396c0.411,0.184,0.759,0.414,1.041,0.692
		c0.282,0.278,0.448,0.593,0.496,0.945c0.017,0.103-0.012,0.268-0.085,0.495c-0.071,0.227-0.169,0.454-0.291,0.681
		c-0.121,0.228-0.254,0.433-0.398,0.615c-0.146,0.184-0.282,0.282-0.412,0.297c-0.048,0-0.187-0.018-0.411-0.055
		c-0.228-0.037-0.48-0.077-0.763-0.121c-0.283-0.044-0.562-0.084-0.835-0.121c-0.274-0.036-0.484-0.055-0.63-0.055
		c-0.5,0-0.968,0.037-1.403,0.11c-0.437,0.073-0.859,0.205-1.271,0.396c-0.412,0.191-0.827,0.447-1.247,0.769
		c-0.42,0.322-0.872,0.725-1.355,1.208c-0.484,0.483-0.98,1.088-1.489,1.813c-0.508,0.726-1.001,1.501-1.477,2.329
		C94,31.33,93.552,32.18,93.133,33.052c-0.42,0.871-0.791,1.688-1.113,2.449c-0.194,0.455-0.379,0.94-0.558,1.462
		c-0.178,0.52-0.348,1.051-0.509,1.594c-0.161,0.541-0.307,1.088-0.436,1.637c-0.129,0.55-0.242,1.072-0.339,1.57
		c-0.018,0.117-0.143,0.238-0.375,0.362c-0.234,0.125-0.505,0.238-0.812,0.341c-0.307,0.104-0.597,0.188-0.872,0.253
		c-0.273,0.065-0.452,0.099-0.533,0.099c-0.436,0.045-0.795-0.103-1.077-0.438c-0.282-0.337-0.504-0.762-0.665-1.274
		c-0.162-0.513-0.271-1.064-0.327-1.658c-0.058-0.594-0.084-1.124-0.084-1.594c0-0.498,0.016-1.127,0.048-1.89
		c0.032-0.762,0.067-1.567,0.108-2.417c0.04-0.85,0.081-1.695,0.121-2.538c0.04-0.842,0.076-1.593,0.109-2.252
		c0.063-0.702,0.097-1.289,0.097-1.758s-0.012-0.89-0.036-1.265c-0.023-0.373-0.044-0.738-0.061-1.099
		c-0.016-0.358,0-0.78,0.048-1.263c0.032-0.352,0.137-0.681,0.315-0.989c0.177-0.308,0.395-0.575,0.652-0.802
		c0.259-0.227,0.545-0.41,0.86-0.55C88.012,20.894,88.315,20.824,88.605,20.824z"/>
	<path fill="#323232" d="M142.884,31.458c0,0.133-0.064,0.297-0.193,0.495c-0.129,0.197-0.315,0.414-0.558,0.646
		c-0.241,0.235-0.531,0.484-0.87,0.748c-0.34,0.264-0.711,0.521-1.114,0.77c-0.629,0.396-1.288,0.779-1.974,1.152
		c-0.686,0.375-1.425,0.711-2.215,1.012c-0.791,0.301-1.643,0.537-2.554,0.714c-0.912,0.176-1.909,0.264-2.99,0.264
		c-1.324,0-2.538-0.2-3.644-0.604c-1.106-0.403-2.155-0.88-3.147-1.429c-0.993-0.55-1.957-1.113-2.893-1.691
		c-0.937-0.579-1.896-1.044-2.881-1.396c-0.565,0.557-1.069,1.18-1.514,1.867c-0.443,0.689-0.844,1.389-1.197,2.1
		c-0.355,0.711-0.67,1.402-0.944,2.076s-0.521,1.273-0.738,1.801c-0.217,0.528-0.412,0.953-0.581,1.275
		c-0.169,0.321-0.327,0.482-0.472,0.482c-0.339,0-0.687-0.063-1.041-0.188c-0.355-0.123-0.682-0.322-0.98-0.593
		s-0.541-0.615-0.727-1.033c-0.186-0.417-0.278-0.919-0.278-1.505c0-0.703,0.058-1.505,0.169-2.406
		c0.113-0.899,0.263-1.859,0.448-2.877c0.186-1.02,0.396-2.07,0.629-3.154c0.234-1.084,0.477-2.159,0.727-3.229
		c0.25-1.07,0.497-2.11,0.737-3.121c0.242-1.011,0.46-1.948,0.654-2.813c0.081-0.352,0.182-0.806,0.303-1.362
		s0.254-1.172,0.399-1.846c0.146-0.674,0.291-1.377,0.436-2.109c0.146-0.732,0.286-1.443,0.424-2.131
		c0.137-0.688,0.258-1.336,0.362-1.944c0.105-0.608,0.189-1.117,0.254-1.527c0.017-0.176,0.061-0.429,0.134-0.758
		c0.072-0.33,0.209-0.656,0.411-0.978c0.202-0.322,0.504-0.604,0.908-0.846c0.403-0.241,0.944-0.362,1.622-0.362
		c0.388,0,0.722,0.216,1.005,0.648c0.282,0.432,0.424,0.956,0.424,1.571c0,0.132-0.048,0.41-0.146,0.835
		c-0.097,0.425-0.227,0.941-0.387,1.549c-0.162,0.608-0.344,1.267-0.545,1.978c-0.202,0.711-0.403,1.421-0.605,2.131
		c-0.202,0.711-0.399,1.385-0.593,2.021c-0.194,0.638-0.355,1.183-0.484,1.637c-0.258,0.85-0.521,1.732-0.787,2.648
		c-0.266,0.916-0.528,1.831-0.787,2.746c-0.259,0.916-0.5,1.81-0.727,2.681c-0.226,0.871-0.437,1.674-0.629,2.406
		c-0.193,0.731-0.355,1.381-0.484,1.943c-0.129,0.564-0.218,0.993-0.266,1.285c-0.033,0.146-0.024,0.268,0.023,0.363
		c0.049,0.095,0.112,0.143,0.193,0.143c0.032,0,0.149-0.113,0.351-0.341c0.202-0.228,0.452-0.522,0.75-0.89
		c0.299-0.366,0.634-0.78,1.006-1.241c0.371-0.462,0.754-0.935,1.149-1.417c0.396-0.484,0.783-0.956,1.162-1.418
		c0.379-0.461,0.722-0.867,1.029-1.219c0.983-1.114,2.001-2.224,3.05-3.33s2.05-2.099,3.002-2.978s1.813-1.593,2.578-2.143
		c0.767-0.549,1.352-0.824,1.755-0.824c0.113,0,0.262,0.033,0.448,0.099c0.186,0.065,0.367,0.161,0.545,0.285
		c0.177,0.125,0.331,0.268,0.46,0.429c0.129,0.161,0.193,0.33,0.193,0.505c-0.032,0.85-0.384,1.623-1.054,2.318
		c-0.67,0.696-1.562,1.388-2.675,2.077c-0.823,0.542-1.63,1.135-2.421,1.78c-0.791,0.645-1.513,1.264-2.167,1.855
		c-0.654,0.594-1.203,1.125-1.646,1.594c-0.442,0.47-0.737,0.791-0.883,0.968c0.629,0.409,1.384,0.86,2.265,1.351
		c0.879,0.491,1.812,0.952,2.796,1.385c0.983,0.433,1.984,0.795,3.002,1.088c1.017,0.293,1.969,0.438,2.856,0.438
		c1.129,0,2.159-0.065,3.087-0.196c0.929-0.133,1.768-0.305,2.519-0.518c0.75-0.212,1.429-0.446,2.034-0.703
		c0.604-0.256,1.166-0.518,1.683-0.779c0.209-0.103,0.437-0.22,0.678-0.353c0.242-0.132,0.477-0.248,0.702-0.353
		c0.227-0.102,0.433-0.188,0.618-0.264c0.185-0.072,0.334-0.109,0.448-0.109c0.081,0,0.161,0.069,0.242,0.209
		C142.844,30.993,142.884,31.193,142.884,31.458z"/>
	<path fill="#323232" d="M165.084,29.568c0,0.514-0.209,1.07-0.629,1.671s-1.018,1.272-1.791,2.021
		c-0.889,0.85-1.865,1.637-2.93,2.361c-1.066,0.727-2.164,1.355-3.293,1.89c-1.13,0.535-2.276,0.956-3.438,1.265
		c-1.162,0.308-2.283,0.461-3.364,0.461c-2.534,0-4.495-0.739-5.884-2.219c-1.388-1.479-2.082-3.647-2.082-6.504
		c0-0.908,0.089-1.836,0.267-2.779c0.178-0.945,0.439-1.879,0.787-2.802c0.347-0.923,0.782-1.816,1.307-2.681
		s1.134-1.67,1.828-2.417c0.436-0.454,0.92-0.916,1.453-1.384c0.532-0.469,1.122-0.89,1.767-1.263
		c0.646-0.374,1.353-0.678,2.118-0.912s1.602-0.352,2.506-0.352c0.646,0,1.228,0.114,1.744,0.341
		c0.516,0.227,0.951,0.516,1.307,0.868c0.356,0.352,0.625,0.747,0.812,1.187c0.186,0.44,0.279,0.872,0.279,1.296
		c0,0.894-0.268,1.798-0.8,2.714s-1.282,1.838-2.252,2.769c-0.968,0.929-2.13,1.86-3.485,2.791c-1.356,0.93-2.865,1.856-4.527,2.778
		c-0.227,0.118-0.452,0.246-0.678,0.385c-0.227,0.14-0.339,0.313-0.339,0.517c0,0.439,0.063,0.902,0.193,1.385
		c0.129,0.484,0.363,0.927,0.702,1.33c0.339,0.402,0.795,0.736,1.368,1s1.303,0.395,2.191,0.395c1.13,0,2.279-0.164,3.449-0.494
		c1.17-0.328,2.316-0.787,3.438-1.373c1.121-0.586,2.211-1.28,3.268-2.088c1.058-0.805,2.047-1.677,2.968-2.613
		c0.516-0.514,0.928-0.77,1.233-0.77c0.178,0,0.308,0.096,0.387,0.285C165.044,28.814,165.084,29.13,165.084,29.568z
		 M153.851,20.187c0-0.161-0.05-0.308-0.146-0.439s-0.214-0.242-0.351-0.33c-0.138-0.088-0.283-0.157-0.437-0.208
		s-0.287-0.077-0.398-0.077c-0.71,0-1.438,0.23-2.18,0.692c-0.742,0.461-1.437,1.102-2.082,1.922
		c-0.645,0.82-1.21,1.794-1.694,2.922s-0.815,2.353-0.992,3.67c0.226-0.133,0.524-0.321,0.896-0.571
		c0.371-0.248,0.771-0.523,1.198-0.824c0.428-0.301,0.855-0.604,1.283-0.911s0.811-0.593,1.15-0.857
		c0.741-0.571,1.355-1.08,1.84-1.527c0.483-0.447,0.867-0.857,1.149-1.23c0.282-0.374,0.48-0.74,0.594-1.099
		C153.794,20.959,153.851,20.582,153.851,20.187z"/>
</g>
<g>
	<path fill="#2E5E86" d="M164.195,40.489V5.794h4.329v15.315c2.285-3.34,5.083-5.01,8.394-5.01c2.08,0,3.731,0.656,4.955,1.967
		s1.834,3.072,1.834,5.284v17.139h-4.328V24.757c0-1.772-0.26-3.036-0.779-3.79c-0.521-0.754-1.382-1.132-2.581-1.132
		c-2.652,0-5.149,1.736-7.493,5.208V40.49L164.195,40.489L164.195,40.489z"/>
	<path fill="#2E5E86" d="M201.615,41.038c-3.501,0-6.272-1.12-8.316-3.361c-2.043-2.241-3.063-5.28-3.063-9.118
		c0-3.837,1.021-6.874,3.063-9.107c2.044-2.233,4.815-3.351,8.316-3.351s6.273,1.117,8.317,3.351
		c2.043,2.234,3.064,5.27,3.064,9.107c0,3.838-1.021,6.877-3.064,9.118S205.116,41.038,201.615,41.038z M201.604,37.786
		c2.149,0,3.816-0.806,5.002-2.417c1.185-1.611,1.775-3.881,1.775-6.811c0-2.931-0.592-5.198-1.775-6.802
		c-1.186-1.604-2.853-2.406-5.002-2.406s-3.813,0.802-4.99,2.406c-1.178,1.604-1.767,3.871-1.767,6.802
		c0,2.93,0.589,5.198,1.767,6.811C197.791,36.98,199.455,37.786,201.604,37.786z"/>
	<path fill="#2E5E86" d="M234.684,40.489v-4.482c-2.301,3.354-5.092,5.031-8.371,5.031c-2.081,0-3.736-0.655-4.967-1.966
		c-1.23-1.313-1.847-3.08-1.847-5.307V16.627h4.329v15.732c0,1.787,0.26,3.059,0.78,3.813c0.52,0.754,1.388,1.133,2.604,1.133
		c2.638,0,5.127-1.736,7.472-5.209V16.627h4.328v23.862H234.684z"/>
	<path fill="#2E5E86" d="M246.813,39.654v-3.978c2.827,1.405,5.288,2.108,7.383,2.108c1.245,0,2.278-0.336,3.099-1.01
		c0.821-0.674,1.23-1.518,1.23-2.527c0-1.479-1.15-2.702-3.45-3.669l-2.526-1.077c-3.734-1.553-5.603-3.787-5.603-6.702
		c0-2.08,0.735-3.717,2.208-4.911c1.472-1.194,3.489-1.791,6.054-1.791c1.332,0,2.98,0.183,4.943,0.549l0.899,0.176v3.604
		c-2.415-0.718-4.343-1.077-5.777-1.077c-1.26,0-2.268,0.274-3.021,0.824c-0.754,0.549-1.132,1.285-1.132,2.208
		c0,1.304,1.055,2.402,3.164,3.296l2.088,0.879c2.358,0.996,4.028,2.047,5.01,3.153c0.982,1.106,1.474,2.485,1.474,4.142
		c0,2.096-0.828,3.816-2.483,5.164c-1.655,1.349-3.771,2.021-6.351,2.021C252.043,41.038,249.64,40.577,246.813,39.654z"/>
	<path fill="#2E5E86" d="M288.121,39.72c-2.899,0.88-5.383,1.318-7.448,1.318c-3.529,0-6.4-1.166-8.612-3.501
		c-2.212-2.334-3.317-5.36-3.317-9.078c0-3.615,0.979-6.578,2.933-8.891c1.956-2.313,4.457-3.469,7.505-3.469
		c2.886,0,5.115,1.029,6.689,3.087c1.575,2.059,2.362,4.977,2.362,8.757l-0.022,1.317h-15.051c0.63,5.654,3.406,8.481,8.328,8.481
		c1.801,0,4.013-0.491,6.635-1.473L288.121,39.72L288.121,39.72z M273.355,26.01h10.524c0-4.439-1.654-6.658-4.966-6.658
		C275.59,19.352,273.736,21.571,273.355,26.01z"/>
</g>
</svg>
